<svg xmlns="http://www.w3.org/2000/svg" width="522" height="794" viewBox="0 0 522 794">
  <g id="Resena_3" data-name="Resena 3" fill="rgba(255,255,255,0.24)">
    <path d="M 480 793.5 L 42 793.5 C 36.39730072021484 793.5 30.96249961853027 792.4027709960938 25.84650039672852 790.2388916015625 C 20.90480041503906 788.1488037109375 16.46649932861328 785.1563720703125 12.65509986877441 781.3449096679688 C 8.843600273132324 777.5335083007813 5.85129976272583 773.0952758789063 3.761100053787231 768.1535034179688 C 1.597200036048889 763.0374755859375 0.5 757.6027221679688 0.5 752 L 0.5 42 C 0.5 36.39730072021484 1.597200036048889 30.96249961853027 3.761100053787231 25.84650039672852 C 5.85129976272583 20.90480041503906 8.843600273132324 16.46649932861328 12.65509986877441 12.65509986877441 C 16.46649932861328 8.843600273132324 20.90480041503906 5.85129976272583 25.84650039672852 3.761100053787231 C 30.96249961853027 1.597200036048889 36.39730072021484 0.5 42 0.5 L 480 0.5 C 485.6026916503906 0.5 491.0375061035156 1.597200036048889 496.1535034179688 3.761100053787231 C 501.0953063964844 5.85129976272583 505.5335083007813 8.843600273132324 509.3449096679688 12.65509986877441 C 513.1563720703125 16.46649932861328 516.1488037109375 20.90480041503906 518.2388916015625 25.84650039672852 C 520.4027709960938 30.96249961853027 521.5 36.39730072021484 521.5 42 L 521.5 752 C 521.5 757.6027221679688 520.4027709960938 763.0374755859375 518.2388916015625 768.1535034179688 C 516.1488037109375 773.0952758789063 513.1563720703125 777.5335083007813 509.3449096679688 781.3449096679688 C 505.5335083007813 785.1563720703125 501.0953063964844 788.1488037109375 496.1535034179688 790.2388916015625 C 491.0375061035156 792.4027709960938 485.6026916503906 793.5 480 793.5 Z" stroke="none"/>
    <path d="M 42 1 C 36.464599609375 1 31.09530639648438 2.08392333984375 26.04119873046875 4.22161865234375 C 21.15908813476563 6.2864990234375 16.7742919921875 9.242919921875 13.00860595703125 13.00860595703125 C 9.242919921875 16.7742919921875 6.2864990234375 21.15911865234375 4.22161865234375 26.04119873046875 C 2.08392333984375 31.09527587890625 1 36.464599609375 1 42 L 1 752 C 1 757.535400390625 2.08392333984375 762.9047241210938 4.22161865234375 767.9588012695313 C 6.2864990234375 772.8408813476563 9.242919921875 777.2257080078125 13.00860595703125 780.9913940429688 C 16.7742919921875 784.757080078125 21.15908813476563 787.7135009765625 26.04119873046875 789.7783813476563 C 31.09530639648438 791.9160766601563 36.464599609375 793 42 793 L 480 793 C 485.535400390625 793 490.9046936035156 791.9160766601563 495.9587097167969 789.7783813476563 C 500.8409118652344 787.7135009765625 505.2257080078125 784.757080078125 508.9913940429688 780.9913940429688 C 512.757080078125 777.2257080078125 515.71337890625 772.8408813476563 517.7783813476563 767.9588012695313 C 519.9160766601563 762.9047241210938 521 757.535400390625 521 752 L 521 42 C 521 36.464599609375 519.9160766601563 31.09527587890625 517.7783813476563 26.04119873046875 C 515.71337890625 21.15911865234375 512.757080078125 16.7742919921875 508.9913940429688 13.00860595703125 C 505.2257080078125 9.242919921875 500.8409118652344 6.2864990234375 495.9587097167969 4.22161865234375 C 490.9046936035156 2.08392333984375 485.535400390625 1 480 1 L 42 1 M 42 0 L 480 0 C 503.1958923339844 0 522 18.80401611328125 522 42 L 522 752 C 522 775.1959838867188 503.1958923339844 794 480 794 L 42 794 C 18.80398559570313 794 0 775.1959838867188 0 752 L 0 42 C 0 18.80401611328125 18.80398559570313 0 42 0 Z" stroke="none" fill="#707070"/>
  </g>
</svg>