<svg xmlns="http://www.w3.org/2000/svg" width="324.625" height="61.43" viewBox="0 0 324.625 61.43">
  <g id="Estrellas" transform="translate(-49 -1814)">
    <g id="estrella" transform="translate(49 1802.206)">
      <g id="Group_7" data-name="Group 7" transform="translate(0 11.794)">
        <path id="Path_5" data-name="Path 5" d="M64.532,35.12A1.891,1.891,0,0,0,63,33.836l-20.034-2.9-8.96-18.09a1.9,1.9,0,0,0-3.4,0l-8.96,18.09-20.034,2.9A1.885,1.885,0,0,0,.572,37.054l14.5,14.081L11.646,71.018a1.892,1.892,0,0,0,2.747,1.989L32.312,63.62l17.918,9.387a1.892,1.892,0,0,0,2.747-1.989L49.555,51.135l14.5-14.081A1.882,1.882,0,0,0,64.532,35.12ZM46.2,49.126a1.882,1.882,0,0,0-.545,1.67L48.6,67.888l-15.4-8.07a1.9,1.9,0,0,0-1.762,0l-15.4,8.07L18.968,50.8a1.883,1.883,0,0,0-.544-1.67L5.962,37.021l17.222-2.494a1.893,1.893,0,0,0,1.426-1.032l7.7-15.552,7.7,15.551a1.893,1.893,0,0,0,1.426,1.032l17.222,2.494Z" transform="translate(0 -11.794)" fill="#eb5555"/>
      </g>
    </g>
    <g id="estrella-2" data-name="estrella" transform="translate(114 1802.206)">
      <g id="Group_7-2" data-name="Group 7" transform="translate(0 11.794)">
        <path id="Path_5-2" data-name="Path 5" d="M64.532,35.12A1.891,1.891,0,0,0,63,33.836l-20.034-2.9-8.96-18.09a1.9,1.9,0,0,0-3.4,0l-8.96,18.09-20.034,2.9A1.885,1.885,0,0,0,.572,37.054l14.5,14.081L11.646,71.018a1.892,1.892,0,0,0,2.747,1.989L32.312,63.62l17.918,9.387a1.892,1.892,0,0,0,2.747-1.989L49.555,51.135l14.5-14.081A1.882,1.882,0,0,0,64.532,35.12ZM46.2,49.126a1.882,1.882,0,0,0-.545,1.67L48.6,67.888l-15.4-8.07a1.9,1.9,0,0,0-1.762,0l-15.4,8.07L18.968,50.8a1.883,1.883,0,0,0-.544-1.67L5.962,37.021l17.222-2.494a1.893,1.893,0,0,0,1.426-1.032l7.7-15.552,7.7,15.551a1.893,1.893,0,0,0,1.426,1.032l17.222,2.494Z" transform="translate(0 -11.794)" fill="#eb5555"/>
      </g>
    </g>
    <g id="estrella-3" data-name="estrella" transform="translate(179 1802.206)">
      <g id="Group_7-3" data-name="Group 7" transform="translate(0 11.794)">
        <path id="Path_5-3" data-name="Path 5" d="M64.532,35.12A1.891,1.891,0,0,0,63,33.836l-20.034-2.9-8.96-18.09a1.9,1.9,0,0,0-3.4,0l-8.96,18.09-20.034,2.9A1.885,1.885,0,0,0,.572,37.054l14.5,14.081L11.646,71.018a1.892,1.892,0,0,0,2.747,1.989L32.312,63.62l17.918,9.387a1.892,1.892,0,0,0,2.747-1.989L49.555,51.135l14.5-14.081A1.882,1.882,0,0,0,64.532,35.12ZM46.2,49.126a1.882,1.882,0,0,0-.545,1.67L48.6,67.888l-15.4-8.07a1.9,1.9,0,0,0-1.762,0l-15.4,8.07L18.968,50.8a1.883,1.883,0,0,0-.544-1.67L5.962,37.021l17.222-2.494a1.893,1.893,0,0,0,1.426-1.032l7.7-15.552,7.7,15.551a1.893,1.893,0,0,0,1.426,1.032l17.222,2.494Z" transform="translate(0 -11.794)" fill="#eb5555"/>
      </g>
    </g>
    <g id="estrella-4" data-name="estrella" transform="translate(244 1802.206)">
      <g id="Group_7-4" data-name="Group 7" transform="translate(0 11.794)">
        <path id="Path_5-4" data-name="Path 5" d="M64.532,35.12A1.891,1.891,0,0,0,63,33.836l-20.034-2.9-8.96-18.09a1.9,1.9,0,0,0-3.4,0l-8.96,18.09-20.034,2.9A1.885,1.885,0,0,0,.572,37.054l14.5,14.081L11.646,71.018a1.892,1.892,0,0,0,2.747,1.989L32.312,63.62l17.918,9.387a1.892,1.892,0,0,0,2.747-1.989L49.555,51.135l14.5-14.081A1.882,1.882,0,0,0,64.532,35.12ZM46.2,49.126a1.882,1.882,0,0,0-.545,1.67L48.6,67.888l-15.4-8.07a1.9,1.9,0,0,0-1.762,0l-15.4,8.07L18.968,50.8a1.883,1.883,0,0,0-.544-1.67L5.962,37.021l17.222-2.494a1.893,1.893,0,0,0,1.426-1.032l7.7-15.552,7.7,15.551a1.893,1.893,0,0,0,1.426,1.032l17.222,2.494Z" transform="translate(0 -11.794)" fill="#eb5555"/>
      </g>
    </g>
    <g id="estrella-5" data-name="estrella" transform="translate(309 1802.206)">
      <g id="Group_7-5" data-name="Group 7" transform="translate(0 11.794)">
        <path id="Path_5-5" data-name="Path 5" d="M64.532,35.12A1.891,1.891,0,0,0,63,33.836l-20.034-2.9-8.96-18.09a1.9,1.9,0,0,0-3.4,0l-8.96,18.09-20.034,2.9A1.885,1.885,0,0,0,.572,37.054l14.5,14.081L11.646,71.018a1.892,1.892,0,0,0,2.747,1.989L32.312,63.62l17.918,9.387a1.892,1.892,0,0,0,2.747-1.989L49.555,51.135l14.5-14.081A1.882,1.882,0,0,0,64.532,35.12ZM46.2,49.126a1.882,1.882,0,0,0-.545,1.67L48.6,67.888l-15.4-8.07a1.9,1.9,0,0,0-1.762,0l-15.4,8.07L18.968,50.8a1.883,1.883,0,0,0-.544-1.67L5.962,37.021l17.222-2.494a1.893,1.893,0,0,0,1.426-1.032l7.7-15.552,7.7,15.551a1.893,1.893,0,0,0,1.426,1.032l17.222,2.494Z" transform="translate(0 -11.794)" fill="#eb5555"/>
      </g>
    </g>
  </g>
</svg>